<svg xmlns="http://www.w3.org/2000/svg" height="512pt" version="1.1" viewBox="0 0 512 512" width="512pt">
<g id="surface1">
<path d="M 512 256 C 512 397.386719 397.386719 512 256 512 C 114.613281 512 0 397.386719 0 256 C 0 114.613281 114.613281 0 256 0 C 397.386719 0 512 114.613281 512 256 Z M 512 256 " style=" stroke:none;fill-rule:nonzero;fill:rgb(47.843137%,24.313725%,70.980392%);fill-opacity:1;" />
<path d="M 512 256 C 512 236.785156 509.867188 218.070312 505.855469 200.066406 L 379.46875 73.683594 L 72 399.25 L 169.886719 497.136719 C 196.800781 506.75 225.785156 512 256 512 C 397.386719 512 512 397.386719 512 256 Z M 512 256 " style=" stroke:none;fill-rule:nonzero;fill:rgb(38.039216%,20%,58.039216%);fill-opacity:1;" />
<path d="M 78.277344 131.058594 L 433.722656 131.058594 L 433.722656 399.25 L 78.277344 399.25 Z M 78.277344 131.058594 " style=" stroke:none;fill-rule:nonzero;fill:rgb(39.215686%,88.235294%,86.27451%);fill-opacity:1;" />
<path d="M 255.761719 131.058594 L 433.722656 131.058594 L 433.722656 399.25 L 255.761719 399.25 Z M 255.761719 131.058594 " style=" stroke:none;fill-rule:nonzero;fill:rgb(0%,78.431373%,78.431373%);fill-opacity:1;" />
<path d="M 132.53125 73.683594 L 379.46875 73.683594 L 379.46875 175.652344 L 132.53125 175.652344 Z M 132.53125 73.683594 " style=" stroke:none;fill-rule:nonzero;fill:rgb(100%,100%,100%);fill-opacity:1;" />
<path d="M 255.761719 73.683594 L 379.46875 73.683594 L 379.46875 175.652344 L 255.761719 175.652344 Z M 255.761719 73.683594 " style=" stroke:none;fill-rule:nonzero;fill:rgb(86.27451%,88.235294%,92.156863%);fill-opacity:1;" />
<path d="M 159.878906 101.519531 L 179.46875 101.519531 L 187.023438 130.851562 L 194.523438 101.519531 L 214.101562 101.519531 L 214.101562 149.722656 L 201.902344 149.722656 L 201.902344 112.960938 L 192.503906 149.722656 L 181.460938 149.722656 L 172.078125 112.960938 L 172.078125 149.722656 L 159.878906 149.722656 Z M 159.878906 101.519531 " style=" stroke:none;fill-rule:nonzero;fill:rgb(15.686275%,39.215686%,94.117647%);fill-opacity:1;" />
<path d="M 253.242188 141.765625 L 236.328125 141.765625 L 233.980469 149.722656 L 218.769531 149.722656 L 236.886719 101.519531 L 253.136719 101.519531 L 271.25 149.722656 L 255.652344 149.722656 Z M 250.152344 131.34375 L 244.828125 114.011719 L 239.5625 131.34375 Z M 250.152344 131.34375 " style=" stroke:none;fill-rule:nonzero;fill:rgb(15.686275%,39.215686%,94.117647%);fill-opacity:1;" />
<path d="M 255.761719 108.5 L 255.761719 149.722656 L 271.253906 149.722656 Z M 255.761719 108.5 " style=" stroke:none;fill-rule:nonzero;fill:rgb(0%,32.54902%,74.901961%);fill-opacity:1;" />
<path d="M 275.988281 101.519531 L 290.882812 101.519531 L 290.882812 137.855469 L 314.132812 137.855469 L 314.132812 149.726562 L 275.988281 149.726562 Z M 275.988281 101.519531 " style=" stroke:none;fill-rule:nonzero;fill:rgb(0%,32.54902%,74.901961%);fill-opacity:1;" />
<path d="M 320.90625 101.519531 L 335.800781 101.519531 L 335.800781 137.855469 L 359.050781 137.855469 L 359.050781 149.726562 L 320.90625 149.726562 Z M 320.90625 101.519531 " style=" stroke:none;fill-rule:nonzero;fill:rgb(0%,32.54902%,74.901961%);fill-opacity:1;" />
<path d="M 72 366.410156 L 440 366.410156 L 440 399.25 L 72 399.25 Z M 72 366.410156 " style=" stroke:none;fill-rule:nonzero;fill:rgb(0%,78.431373%,78.431373%);fill-opacity:1;" />
<path d="M 255.761719 366.410156 L 440 366.410156 L 440 399.25 L 255.761719 399.25 Z M 255.761719 366.410156 " style=" stroke:none;fill-rule:nonzero;fill:rgb(10.980392%,67.843137%,70.980392%);fill-opacity:1;" />
<path d="M 171.972656 249.539062 L 340.027344 249.539062 L 340.027344 399.25 L 171.972656 399.25 Z M 171.972656 249.539062 " style=" stroke:none;fill-rule:nonzero;fill:rgb(70.588235%,96.078431%,94.117647%);fill-opacity:1;" />
<path d="M 255.761719 249.539062 L 340.027344 249.539062 L 340.027344 399.25 L 255.761719 399.25 Z M 255.761719 249.539062 " style=" stroke:none;fill-rule:nonzero;fill:rgb(58.823529%,92.156863%,90.196078%);fill-opacity:1;" />
</g>
</svg>