<svg id="Layer_3" enable-background="new 0 0 64 64" height="512" viewBox="0 0 64 64" width="512" xmlns="http://www.w3.org/2000/svg"><path d="m18 10-4-4h-5v-4h7l5 5z" fill="#ed6863"/><path d="m14.636 7.879h12.728v4.243h-12.728z" fill="#b24e4a" transform="matrix(.707 -.707 .707 .707 -.92 17.778)"/><path d="m55 4v56c0 1.105-.895 2-2 2h-38c-1.105 0-2-.895-2-2v-39l19-19h21c1.105 0 2 .895 2 2z" fill="#b24e4a"/><path d="m52 60v-56c0-1.105-.895-2-2-2h-18l-19 19v39c0 1.105.895 2 2 2h35c1.105 0 2-.895 2-2z" fill="#ed6863"/><path d="m13 24h42v32h-42z" fill="#9db5be"/><path d="m13 24h39v32h-39z" fill="#d1f2fd"/><path d="m27.688 49.11c-1.093-1.366-1.688-3.063-1.688-4.812 0-2.157.598-4.271 1.729-6.108l6.271-10.19 6.271 10.191c1.131 1.837 1.729 3.951 1.729 6.107 0 1.749-.595 3.446-1.688 4.811-1.461 1.827-3.674 2.891-6.014 2.891h-.597c-2.339 0-4.552-1.064-6.013-2.89z" fill="#b24e4a"/><path d="m32.5 30.437-4.771 7.753c-1.131 1.838-1.729 3.952-1.729 6.108 0 1.749.595 3.445 1.688 4.811 1.208 1.51 2.931 2.487 4.812 2.785 1.881-.298 3.605-1.275 4.812-2.785 1.093-1.365 1.688-3.062 1.688-4.811 0-2.157-.598-4.271-1.729-6.108z" fill="#ed6863"/><g fill="#fff"><path d="m49 14h-12c-1.105 0-2-.895-2-2v-4c0-1.105.895-2 2-2h12c1.105 0 2 .895 2 2v4c0 1.105-.895 2-2 2z"/><path d="m34 49v-2c1.654 0 3-1.346 3-3h2c0 2.757-2.243 5-5 5z"/></g></svg>