<svg id="Layer_3" enable-background="new 0 0 64 64" height="512" viewBox="0 0 64 64" width="512" xmlns="http://www.w3.org/2000/svg"><path d="m25.672 5.136h5.657v12.728h-5.657z" fill="#ed6863" transform="matrix(.707 -.707 .707 .707 .216 23.521)"/><path d="m35 14 2-2 3 3-8 8-3-3 2-2" fill="#868992"/><path d="m35.672 17.964h5.657v7.071h-5.657z" fill="#b3b6c2" transform="matrix(.707 -.707 .707 .707 -3.926 33.521)"/><path d="m17 25-4 4 2.293 2.293c.453.453 1.067.707 1.707.707.64 0 1.254-.254 1.707-.707l.586-.586c.453-.453.707-1.067.707-1.707 0-.64-.254-1.254-.707-1.707z" fill="#7ec95f"/><path d="m17 25-4 4-2.293-2.293c-.453-.453-.707-1.067-.707-1.707 0-.64.254-1.254.707-1.707l.586-.586c.453-.453 1.067-.707 1.707-.707.64 0 1.254.254 1.707.707z" fill="#d7d7e2"/><path d="m5 11 4 4-2.293 2.293c-.453.453-1.067.707-1.707.707-.64 0-1.254-.254-1.707-.707l-.586-.586c-.453-.453-.707-1.067-.707-1.707 0-.64.254-1.254.707-1.707z" fill="#7ec95f"/><path d="m5 11 4 4 2.293-2.293c.453-.453.707-1.067.707-1.707 0-.64-.254-1.254-.707-1.707l-.586-.586c-.453-.453-1.067-.707-1.707-.707-.64 0-1.254.254-1.707.707z" fill="#d7d7e2"/><circle cx="54" cy="28" fill="#d7d7e2" r="4"/><circle cx="58" cy="14" fill="#d7d7e2" r="4"/><path d="m48 62h-32c-1.105 0-2-.895-2-2v-20c0-1.105.895-2 2-2h32c1.105 0 2 .895 2 2v20c0 1.105-.895 2-2 2z" fill="#ed6863"/><path d="m18 42v-4h-2c-1.105 0-2 .895-2 2v2z" fill="#d7d7e2"/><path d="m18 58v4h-2c-1.105 0-2-.895-2-2v-2z" fill="#d7d7e2"/><path d="m46 58h4v2c0 1.105-.895 2-2 2h-2z" fill="#d7d7e2"/><path d="m46 42h4v-2c0-1.105-.895-2-2-2h-2z" fill="#d7d7e2"/><path d="m38 48h-4v-4h-4v4h-4v4h4v4h4v-4h4z" fill="#d7d7e2"/><g fill="#868992"><path d="m39 38h-2v-3h-10v3h-2v-4c0-.553.447-1 1-1h12c.553 0 1 .447 1 1z"/><path d="m20.5.964h2v7.071h-2z" transform="matrix(.707 -.707 .707 .707 3.115 16.521)"/><path d="m29.586 11h2.828v2h-2.828z" transform="matrix(.707 -.707 .707 .707 .594 25.435)"/><path d="m26.586 8h2.828v2h-2.828z" transform="matrix(.707 -.707 .707 .707 1.837 22.435)"/><path d="m35.343 23h11.314v2h-11.314z" transform="matrix(.707 -.707 .707 .707 -4.962 36.021)"/><path d="m54.566 11.98 5.454 5.454c.585-.345 1.069-.829 1.414-1.414l-5.454-5.454c-.585.345-1.069.829-1.414 1.414z"/><path d="m50.566 30.02c.345.585.829 1.069 1.414 1.414l5.454-5.454c-.345-.585-.829-1.069-1.414-1.414z"/></g></svg>