<svg height="512" viewBox="0 0 64 64" width="512" xmlns="http://www.w3.org/2000/svg"><g id="flat"><path d="m32 3c-9.941 0-18 1.791-18 4h36c0-2.209-8.059-4-18-4z" fill="#d75745"/><path d="m14 7h36v4h-36z" fill="#f1997e"/><path d="m14 15h36v40h-36z" fill="#d75745"/><g fill="#2d75bb"><path d="m18 61h-4v-6h8z"/><path d="m46 61h4v-6h-8z"/><path d="m17 11h4v4h-4z"/><path d="m43 11h4v4h-4z"/></g><path d="m18 19h28v28h-28z" fill="#f4f4e6"/><path d="m45 50h2v2h-2z" fill="#fcf05a"/><path d="m41 50h2v2h-2z" fill="#fcf05a"/><path d="m24 28h-3v10h3a2.987 2.987 0 0 0 2.22-5 2.987 2.987 0 0 0 -2.22-5zm-1 2h1a1 1 0 0 1 0 2h-1zm1 6h-1v-2h1a1 1 0 0 1 0 2z" fill="#f9bb4b"/><path d="m43 30v-2h-5a1 1 0 0 0 -1 1v4a1 1 0 0 0 1 1h3v2h-4v2h5a1 1 0 0 0 1-1v-4a1 1 0 0 0 -1-1h-3v-2z" fill="#f9bb4b"/><path d="m33 35a1 1 0 0 1 -2 0v-7h-2v7a3 3 0 0 0 6 0v-7h-2z" fill="#f9bb4b"/><path d="m21 40h22v2h-22z" fill="#50b4f8"/><path d="m21 24h22v2h-22z" fill="#50b4f8"/></g></svg>