<svg height="512" viewBox="0 0 64 64" width="512" xmlns="http://www.w3.org/2000/svg"><g id="Filled_outline" data-name="Filled outline"><path d="m32 3c-9.941 0-18 1.791-18 4h36c0-2.209-8.059-4-18-4z" fill="#d75745"/><path d="m14 7h36v4h-36z" fill="#f1997e"/><path d="m14 15h36v40h-36z" fill="#d75745"/><g fill="#2d75bb"><path d="m18 61h-4v-6h8z"/><path d="m46 61h4v-6h-8z"/><path d="m17 11h4v4h-4z"/><path d="m43 11h4v4h-4z"/></g><path d="m18 19h28v28h-28z" fill="#f4f4e6"/><path d="m13 14v48h5.535l4-6h18.93l4 6h5.535v-48h-3v-2h2a1 1 0 0 0 1-1v-4c0-3.947-11.943-5-19-5s-19 1.053-19 5v4a1 1 0 0 0 1 1h2v2zm4.465 46h-2.465v-4h5.131zm31.535 0h-2.465l-2.666-4h5.131zm-17-56c7.685 0 12.989 1.031 15.449 2h-30.9c2.462-.969 7.766-2 15.451-2zm-17 6v-2h34v2zm31 2v2h-2v-2zm-4 0v2h-20v-2zm-22 0v2h-2v-2zm29 4v38h-34v-38z"/><path d="m47 18h-30v30h30zm-2 28h-26v-26h26z"/><path d="m45 50h2v2h-2z"/><path d="m41 50h2v2h-2z"/><path d="m27 35a2.981 2.981 0 0 0 -.78-2 2.987 2.987 0 0 0 -2.22-5h-3v10h3a3 3 0 0 0 3-3zm-4-5h1a1 1 0 0 1 0 2h-1zm0 4h1a1 1 0 0 1 0 2h-1z"/><path d="m37 29v4a1 1 0 0 0 1 1h3v2h-4v2h5a1 1 0 0 0 1-1v-4a1 1 0 0 0 -1-1h-3v-2h4v-2h-5a1 1 0 0 0 -1 1z"/><path d="m29 28v7a3 3 0 0 0 6 0v-7h-2v7a1 1 0 0 1 -2 0v-7z"/><path d="m21 40h22v2h-22z"/><path d="m21 24h22v2h-22z"/></g></svg>