<?xml version="1.0" encoding="iso-8859-1"?>
<!-- Generator: Adobe Illustrator 19.0.0, SVG Export Plug-In . SVG Version: 6.00 Build 0)  -->
<svg version="1.1" id="Layer_1" xmlns="http://www.w3.org/2000/svg" xmlns:xlink="http://www.w3.org/1999/xlink" x="0px" y="0px"
	 viewBox="0 0 511.999 511.999" style="enable-background:new 0 0 511.999 511.999;" xml:space="preserve">
<path style="fill:#6598CB;" d="M255.998,60.911c-27.403,0-49.612,22.212-49.612,49.61c0,27.402,22.21,49.614,49.612,49.614
	c27.399,0,49.61-22.213,49.61-49.614C305.608,83.122,283.397,60.911,255.998,60.911z M255.997,126.36
	c-8.663,0-15.685-7.022-15.685-15.685c0-8.662,7.022-15.685,15.685-15.685c8.662,0,15.686,7.023,15.686,15.685
	C271.682,119.339,264.659,126.36,255.997,126.36z"/>
<path style="fill:#29404F;" d="M208.515,511.999h-11.702c-11.771,0-21.31-9.541-21.31-21.307v-7.103
	c0-11.767,9.539-21.308,21.31-21.308h118.374c11.767,0,21.308,9.541,21.308,21.308v7.103c0,11.766-9.541,21.307-21.308,21.307
	h-77.676"/>
<path style="opacity:0.15;enable-background:new    ;" d="M194.093,490.692v-7.103c0-11.767,9.539-21.308,21.31-21.308h-18.59
	c-11.771,0-21.31,9.541-21.31,21.308v7.103c0,11.766,9.539,21.307,21.31,21.307h11.702h6.888
	C203.632,511.999,194.093,502.458,194.093,490.692z"/>
<polygon style="fill:#324A5E;" points="298.178,462.282 213.819,462.282 233.348,286.204 278.647,286.204 "/>
<polygon style="opacity:0.15;enable-background:new    ;" points="233.348,286.204 213.819,462.282 232.408,462.282 
	251.938,286.204 "/>
<path style="fill:#C3C8D1;" d="M255.998,160.135c-7.371,0-14.36-1.621-20.648-4.503c-1.708,3.062-2.687,6.585-2.687,10.339v120.233
	h46.67V165.971c0-3.755-0.979-7.278-2.687-10.339C270.356,158.515,263.37,160.135,255.998,160.135z"/>
<g style="opacity:0.1;">
	<path d="M252.128,159.967c-5.948-0.463-11.603-1.962-16.778-4.335c-1.708,3.062-2.687,6.585-2.687,10.339v120.233h18.59V165.971
		C251.252,163.884,251.565,161.871,252.128,159.967z"/>
</g>
<g>
	<path style="fill:#D8DDE5;" d="M135.646,187.312c-2.126,0-4.251-0.822-5.858-2.459c-19.495-19.869-30.235-46.145-30.237-73.986
		c0-28.2,10.976-54.716,30.91-74.659c3.205-3.206,8.399-3.207,11.605-0.003c3.206,3.204,3.207,8.4,0.003,11.605
		c-16.836,16.845-26.105,39.238-26.105,63.056c0.002,23.516,9.072,45.709,25.539,62.491c3.173,3.236,3.124,8.431-0.109,11.605
		C139.796,186.531,137.721,187.312,135.646,187.312z"/>
	<path style="fill:#D8DDE5;" d="M101.73,221.35c-2.116,0-4.23-0.813-5.837-2.437c-28.622-28.962-44.385-67.333-44.383-108.047
		c0-40.942,15.908-79.456,44.793-108.451c3.2-3.212,8.396-3.22,11.605-0.023c3.212,3.2,3.221,8.395,0.023,11.605
		c-25.801,25.897-40.009,60.3-40.009,96.869c-0.002,36.367,14.077,70.641,39.643,96.509c3.186,3.224,3.156,8.42-0.068,11.605
		C105.9,220.562,103.815,221.35,101.73,221.35z"/>
	<path style="fill:#D8DDE5;" d="M170.484,152.353c-2.158,0-4.311-0.846-5.923-2.525c-10.1-10.528-15.663-24.364-15.663-38.958
		c0-15.017,5.842-29.14,16.45-39.769c3.202-3.206,8.397-3.213,11.606-0.011c3.208,3.203,3.213,8.399,0.011,11.606
		c-7.515,7.528-11.654,17.533-11.654,28.172c0,10.337,3.94,20.137,11.094,27.594c3.137,3.271,3.031,8.465-0.241,11.603
		C174.573,151.593,172.527,152.353,170.484,152.353z"/>
	<path style="fill:#D8DDE5;" d="M376.352,187.312c-2.075,0-4.15-0.781-5.748-2.348c-3.235-3.174-3.285-8.37-0.109-11.605
		c16.467-16.783,25.537-38.976,25.54-62.492c0-23.817-9.271-46.21-26.106-63.055c-3.203-3.206-3.203-8.403,0.003-11.605
		c3.205-3.204,8.401-3.205,11.606,0.003c19.934,19.944,30.911,46.459,30.911,74.659c-0.003,27.842-10.742,54.117-30.238,73.987
		C380.602,186.49,378.478,187.312,376.352,187.312z"/>
	<path style="fill:#D8DDE5;" d="M410.265,221.35c-2.085,0-4.169-0.789-5.769-2.37c-3.224-3.186-3.254-8.382-0.068-11.605
		c25.568-25.868,39.647-60.142,39.646-96.509c0-36.568-14.209-70.969-40.009-96.868c-3.198-3.212-3.189-8.407,0.023-11.605
		c3.207-3.198,8.404-3.191,11.605,0.023c28.885,28.995,44.794,67.511,44.794,108.451c0.002,40.715-15.76,79.086-44.386,108.047
		C414.497,220.537,412.38,221.35,410.265,221.35z"/>
	<path style="fill:#D8DDE5;" d="M341.514,152.353c-2.044,0-4.089-0.758-5.68-2.285c-3.271-3.138-3.378-8.334-0.241-11.603
		c7.153-7.455,11.093-17.255,11.093-27.594c0-10.64-4.138-20.645-11.651-28.172c-3.203-3.208-3.198-8.405,0.01-11.605
		c3.208-3.204,8.405-3.198,11.605,0.01c10.607,10.626,16.449,24.749,16.449,39.769c0,14.596-5.562,28.431-15.662,38.958
		C345.825,151.507,343.671,152.353,341.514,152.353z"/>
</g>
<g>
</g>
<g>
</g>
<g>
</g>
<g>
</g>
<g>
</g>
<g>
</g>
<g>
</g>
<g>
</g>
<g>
</g>
<g>
</g>
<g>
</g>
<g>
</g>
<g>
</g>
<g>
</g>
<g>
</g>
</svg>
