<svg viewBox="0 -46 512 512" xmlns="http://www.w3.org/2000/svg"><path d="m318.199219 96-185.699219-24.601562-10.800781-1.5-3.898438 29.703124 20.398438 2.699219 73.800781 9.898438v67.800781h-75v30h75v60h-55.800781v30h355.800781v-178.199219zm-16.199219 174h-60v-60h60zm0-90h-60v-63.898438l60 8.097657zm90 90h-60v-60h60zm0-90h-60v-51.902344l60 8.101563zm90 90h-60v-60h60zm0-90h-60v-39.902344l60 8.101563zm0 0" fill="#9ed0ff"/><path d="m318.199219 96v204h193.800781v-178.199219zm73.800781 174h-60v-60h60zm0-90h-60v-51.902344l60 8.101563zm90 90h-60v-60h60zm0-90h-60v-39.902344l60 8.101563zm0 0" fill="#73bcff"/><path d="m482 330v30h-327.597656l-60-330h-94.402344v-30h119.597656l12.902344 71.398438 5.699219 30.902343 14.101562 77.699219 5.398438 30 11.101562 60 10.796875 60zm0 0" fill="#3aaaff"/><path d="m318.199219 330h163.800781v30h-163.800781zm0 0" fill="#0095ff"/><path d="m227 420c-24.8125 0-45-20.1875-45-45s20.1875-45 45-45 45 20.1875 45 45-20.1875 45-45 45zm0 0" fill="#5a5a5a"/><path d="m227 390c-8.277344 0-15-6.722656-15-15s6.722656-15 15-15 15 6.722656 15 15-6.722656 15-15 15zm0 0" fill="#ececf1"/><path d="m407 420c-24.8125 0-45-20.1875-45-45s20.1875-45 45-45 45 20.1875 45 45-20.1875 45-45 45zm0 0" fill="#444"/><path d="m407 390c-8.277344 0-15-6.722656-15-15s6.722656-15 15-15 15 6.722656 15 15-6.722656 15-15 15zm0 0" fill="#e2e2e7"/></svg>