<svg id="Layer_3" enable-background="new 0 0 64 64" height="512" viewBox="0 0 64 64" width="512" xmlns="http://www.w3.org/2000/svg"><g><path d="m54.287 14.041c-6.506-1.952-12.45-5.146-17.667-9.494l-3.98-3.317c-.37-.308-.909-.309-1.281 0l-3.98 3.316c-5.217 4.348-11.161 7.542-17.574 9.471l-.828.164.389 1.962.92-.188c1.261-.378 2.494-.816 3.712-1.283v8.326l2-.001-.001-9.137c1.017-.439 2.017-.911 3.001-1.414v10.551h2v-11.627c1.019-.578 2.021-1.186 3-1.833v13.461h2v-14.854c.904-.66 1.795-1.34 2.661-2.061l2.341-1.95v3.865l2 .001v-3.866l2.339 1.95c.866.722 1.757 1.401 2.661 2.061v14.856h2v-13.463c.979.647 1.981 1.255 3 1.833v11.629h2v-10.552c.984.502 1.983.974 3 1.413v9.14h2v-8.328c1.228.471 2.47.912 3.742 1.294l1.09.292.518-1.932z" fill="#8892a0"/><path d="m6 37h4v14h-4z" fill="#758190"/><path d="m4 29h8v4h-8z" fill="#a8b0bc"/><path d="m4 33 2 4h4l2-4" fill="#c1c8d1"/><path d="m54 37h4v14h-4z" fill="#758190"/><path d="m52 29h8v4h-8z" fill="#a8b0bc"/><path d="m52 33 2 4h4l2-4" fill="#c1c8d1"/><path d="m30 37h4v14h-4z" fill="#758190"/><path d="m62 62-2.4-1.8c-1.039-.779-2.302-1.2-3.6-1.2-1.298 0-2.561.421-3.6 1.2l-.8.6c-1.039.779-2.302 1.2-3.6 1.2-1.298 0-2.561-.421-3.6-1.2l-.8-.6c-1.039-.779-2.302-1.2-3.6-1.2-1.298 0-2.561.421-3.6 1.2l-.8.6c-1.039.779-2.302 1.2-3.6 1.2-1.298 0-2.561-.421-3.6-1.2l-.8-.6c-1.039-.779-2.302-1.2-3.6-1.2-1.298 0-2.561.421-3.6 1.2l-.8.6c-1.039.779-2.302 1.2-3.6 1.2-1.298 0-2.561-.421-3.6-1.2l-.8-.6c-1.039-.779-2.302-1.2-3.6-1.2-1.298 0-2.561.421-3.6 1.2l-2.4 1.8v-6l2.4-1.8c1.039-.779 2.302-1.2 3.6-1.2 1.298 0 2.561.421 3.6 1.2l.8.6c1.039.779 2.302 1.2 3.6 1.2 1.298 0 2.561-.421 3.6-1.2l.8-.6c1.039-.779 2.302-1.2 3.6-1.2 1.298 0 2.561.421 3.6 1.2l.8.6c1.039.779 2.302 1.2 3.6 1.2 1.298 0 2.561-.421 3.6-1.2l.8-.6c1.039-.779 2.302-1.2 3.6-1.2 1.298 0 2.561.421 3.6 1.2l.8.6c1.039.779 2.302 1.2 3.6 1.2 1.298 0 2.561-.421 3.6-1.2l.8-.6c1.039-.779 2.302-1.2 3.6-1.2 1.298 0 2.561.421 3.6 1.2l2.4 1.8z" fill="#a1cdfb"/><path d="m62 56-2.4-1.8c-1.039-.779-2.302-1.2-3.6-1.2-1.298 0-2.561.421-3.6 1.2l-.8.6c-1.039.779-2.302 1.2-3.6 1.2-1.298 0-2.561-.421-3.6-1.2l-.8-.6c-1.039-.779-2.302-1.2-3.6-1.2-1.298 0-2.561.421-3.6 1.2l-.8.6c-1.039.779-2.302 1.2-3.6 1.2-1.298 0-2.561-.421-3.6-1.2l-.8-.6c-1.039-.779-2.302-1.2-3.6-1.2-1.298 0-2.561.421-3.6 1.2l-.8.6c-1.039.779-2.302 1.2-3.6 1.2-1.298 0-2.561-.421-3.6-1.2l-.8-.6c-1.039-.779-2.302-1.2-3.6-1.2-1.298 0-2.561.421-3.6 1.2l-2.4 1.8v-6l2.4-1.8c1.039-.779 2.302-1.2 3.6-1.2 1.298 0 2.561.421 3.6 1.2l.8.6c1.039.779 2.302 1.2 3.6 1.2 1.298 0 2.561-.421 3.6-1.2l.8-.6c1.039-.779 2.302-1.2 3.6-1.2 1.298 0 2.561.421 3.6 1.2l.8.6c1.039.779 2.302 1.2 3.6 1.2 1.298 0 2.561-.421 3.6-1.2l.8-.6c1.039-.779 2.302-1.2 3.6-1.2 1.298 0 2.561.421 3.6 1.2l.8.6c1.039.779 2.302 1.2 3.6 1.2 1.298 0 2.561-.421 3.6-1.2l.8-.6c1.039-.779 2.302-1.2 3.6-1.2 1.298 0 2.561.421 3.6 1.2l2.4 1.8z" fill="#c7e2fc"/><path d="m35 23h27v6h-60v-6h27" fill="#758190"/><path d="m28 29h8v4h-8z" fill="#a8b0bc"/><path d="m28 33 2 4h4l2-4" fill="#c1c8d1"/><path d="m29 29v-12c0-.552.448-1 1-1h4c.552 0 1 .448 1 1v12" fill="#c1c8d1"/><path d="m30 16v-7c0-1.105.895-2 2-2 1.105 0 2 .895 2 2v7" fill="#a8b0bc"/><path d="m5 23 1-4h4l1 4" fill="#a8b0bc"/><path d="m6 19v-4h4v4" fill="#c1c8d1"/><path d="m59 23-1-4h-4l-1 4" fill="#a8b0bc"/><path d="m58 19v-4h-4v4" fill="#c1c8d1"/><g fill="#f7d881"><path d="m54 15 .876-7.008c.071-.567.553-.992 1.124-.992.571 0 1.053.425 1.124.992l.876 7.008"/><path d="m6 15 .876-7.008c.071-.567.553-.992 1.124-.992.571 0 1.053.425 1.124.992l.876 7.008"/></g></g></svg>